<svg xmlns="http://www.w3.org/2000/svg" fill-rule="evenodd" viewBox="0 0 100 100">
    <path d="M67 50.5a1.5 1.5 0 0 0-1.5-1.5H52V28.5a1.5 1.5 0 0 0-3 0v22a1.5 1.5 0 0 0 1.5 1.5h15a1.5 1.5 0 0 0 1.5-1.5Z"/>
    <path d="M15.27 44.31a1.51 1.51 0 0 0 .65-.15L28.54 38a1.5 1.5 0 0 0-1.31-2.69L17.64 40a34.51 34.51 0 0 1 65.81.26 33.88 33.88 0 0 1 .93 3.74 1.51 1.51 0 0 0 1.47 1.21h.29a1.52 1.52 0 0 0 1.19-1.76 35.81 35.81 0 0 0-1-4A37.32 37.32 0 0 0 50.5 13a37.7 37.7 0 0 0-35.59 25.66l-4.45-9.12a1.5 1.5 0 1 0-2.69 1.31l6.15 12.62a1.5 1.5 0 0 0 1.35.84ZM93.39 71l-6.16-12.66a1.5 1.5 0 0 0-2-.69L72.61 63.8a1.5 1.5 0 0 0 1.32 2.7L83 62.07A34.5 34.5 0 0 1 16.6 57a1.5 1.5 0 1 0-3 .56A37.51 37.51 0 0 0 86 62.64l4.7 9.63a1.49 1.49 0 0 0 1.35.85 1.39 1.39 0 0 0 .65-.16 1.5 1.5 0 0 0 .69-1.96Z"/>
    <path d="M49 72.5v7a1.5 1.5 0 0 0 3 0v-7a1.5 1.5 0 0 0-3 0Zm-15.09-8.04-4.95 5a1.51 1.51 0 0 0 2.13 2.13l4.95-5a1.51 1.51 0 0 0-2.13-2.13Z"/>
</svg>
