<?xml version="1.0" encoding="UTF-8"?> <svg xmlns="http://www.w3.org/2000/svg" viewBox="0 0 100 100" fill-rule="evenodd"><path d="M75.624 4.072a1 1 0 0 1 1.271.6l4.981 13.837-5.44 1.954a1.513 1.513 0 0 0-.249-.162l-18.765-9.69 18.202-6.54ZM54.02 11.833 36.327 18.19l19.117 9.535c.102.05.196.111.28.18l16.895-6.07-17.903-9.244a1.493 1.493 0 0 1-.697-.757Zm-2.154 17.458L34.27 20.515a1.5 1.5 0 0 1-.83-1.288l-15.963 5.735 18.938 9.43c.159.078.297.18.413.301l15.038-5.402ZM33.03 36.057l-18.679-9.3a1.493 1.493 0 0 1-.554-.473l-3.875 1.392a1 1 0 0 0-.599 1.27l4.982 13.838 18.725-6.727ZM74.61 1.248a4 4 0 0 1 5.109 2.409l5.488 15.248a1.5 1.5 0 0 1-.904 1.92L21.556 43.367h66.68a1.5 1.5 0 0 1 1.5 1.5v46.128a4.002 4.002 0 0 1-3.994 3.992H15.929a4 4 0 0 1-3.993-3.993V45.062l-5.435-15.1a4 4 0 0 1 2.407-5.11L74.61 1.248Zm-59.674 59.84v-14.72h5.302l14.218 14.72h-19.52Zm0 3v26.906a1 1 0 0 0 .993.993h69.813c.542 0 .994-.45.994-.994V64.089h-71.8Zm71.8-3v-14.72H66.994l13.61 14.511c.061.066.116.136.164.21h5.968Zm-23.85-14.72h-18.37L58.573 60.94c.045.047.088.097.126.149h17.988L62.944 46.433a1.448 1.448 0 0 1-.059-.066Zm-22.242 0H24.408l14 14.495c.07.07.13.146.18.226h15.96l-13.523-14.02a1.494 1.494 0 0 1-.381-.702Z" stroke-width="1" stroke="black"></path></svg> 