<?xml version="1.0" encoding="UTF-8"?> <svg xmlns="http://www.w3.org/2000/svg" viewBox="0 0 100 100" fill-rule="evenodd"><path d="M26 21h-6a1.5 1.5 0 0 0 0 3h6a1.5 1.5 0 0 0 0-3Zm14 0h-6a1.5 1.5 0 0 0 0 3h6a1.5 1.5 0 0 0 0-3Z" stroke-width="1" stroke="black"></path><path d="M86.44 27H84v-7.94A5.07 5.07 0 0 0 78.94 14H17.06A5.07 5.07 0 0 0 12 19.06v39.88A5.07 5.07 0 0 0 17.06 64H21v11.44A4.57 4.57 0 0 0 25.56 80h13.88A4.57 4.57 0 0 0 44 75.44V64h7v11.44A4.57 4.57 0 0 0 55.56 80h30.88A4.57 4.57 0 0 0 91 75.44V31.56A4.57 4.57 0 0 0 86.44 27Zm-47 50H25.56A1.57 1.57 0 0 1 24 75.44V45.56A1.57 1.57 0 0 1 25.56 44h13.88A1.57 1.57 0 0 1 41 45.56v29.88A1.57 1.57 0 0 1 39.44 77ZM44 61V45.56A4.57 4.57 0 0 0 39.44 41H25.56A4.57 4.57 0 0 0 21 45.56V61h-3.94A2.06 2.06 0 0 1 15 58.94V19.06A2.06 2.06 0 0 1 17.06 17h61.88A2.06 2.06 0 0 1 81 19.06V27H55.56A4.57 4.57 0 0 0 51 31.56V61Zm44 14.44A1.57 1.57 0 0 1 86.44 77H55.56A1.57 1.57 0 0 1 54 75.44V31.56A1.57 1.57 0 0 1 55.56 30h30.88A1.57 1.57 0 0 1 88 31.56Z" stroke-width="1" stroke="black"></path><path d="M70.989 68.502a2.5 2.5 0 1 0 .017 5 2.5 2.5 0 1 0-.017-5z" stroke-width="1" stroke="black"></path></svg> 