<?xml version="1.0" encoding="UTF-8"?> <svg xmlns="http://www.w3.org/2000/svg" viewBox="0 0 100 100" fill-rule="evenodd"><rect x="0" y="0" width="100" height="100" fill="#0d7c94" rx="20" ry="20" mask="url(#fea77b9bf5b40d)"></rect><mask id="fea77b9bf5b40d"><rect x="0" y="0" width="100" height="100" fill="white" rx="20" ry="20"></rect><path d="M97.74 35.75a1.5 1.5 0 0 0-1.88-1L79 40l6.74-12.9a1.5 1.5 0 1 0-2.66-1.39L74.9 41.3l-10.2 3.18L52 35.24V24.53l12.45-12.45A1.5 1.5 0 1 0 62.33 10L52 20.29V2.5a1.5 1.5 0 0 0-3 0v17.79L38.67 10a1.5 1.5 0 1 0-2.12 2.12L49 24.53v10.7l-12.69 9.24-10.17-3.17L18 25.71a1.5 1.5 0 0 0-2.7 1.39L22.09 40 5.18 34.76a1.5 1.5 0 1 0-.89 2.86L21.2 42.9 8.26 49.69a1.5 1.5 0 1 0 1.39 2.66l15.59-8.18 10.16 3.17 4.82 14.86-6.38 8.64-17.4 2.62a1.5 1.5 0 0 0 .45 3l14.44-2.18L20.82 88.5a1.5 1.5 0 0 0 2.41 1.78L33.75 76l2.18 14.44a1.5 1.5 0 0 0 1.48 1.28h.23A1.5 1.5 0 0 0 38.89 90l-2.62-17.38L42.63 64h15.65l6.36 8.62L62 90a1.5 1.5 0 0 0 1.26 1.71h.23A1.5 1.5 0 0 0 65 90.47L67.16 76l10.51 14.28a1.5 1.5 0 0 0 2.41-1.78L69.57 74.25 84 76.42a1.5 1.5 0 0 0 .45-3l-17.4-2.59-6.31-8.55 4.84-14.94 10.22-3.18 15.59 8.18a1.5 1.5 0 0 0 1.39-2.66L79.85 42.9l16.91-5.27a1.5 1.5 0 0 0 .98-1.88ZM58 61H43l-4.64-14.31 12.14-8.83 12.14 8.84Z" fill="black"></path></mask></svg> 