<?xml version="1.0" encoding="UTF-8"?> <svg xmlns="http://www.w3.org/2000/svg" viewBox="0 0 100 100" fill-rule="evenodd"><path d="M86.5 17h-73a1.5 1.5 0 0 0-1.5 1.5v48a1.5 1.5 0 0 0 1.5 1.5h20.91l-16 16a1.5 1.5 0 0 0 0 2.12l6.47 6.47a1.5 1.5 0 0 0 2.12 0L51.59 68H86.5a1.5 1.5 0 0 0 1.5-1.5v-48a1.5 1.5 0 0 0-1.5-1.5ZM26 89.38 21.62 85l34.8-34.8 7.34-3-3 7.34ZM85 65H54.59l8.52-8.52a1.49 1.49 0 0 0 .33-.49l4.45-10.92a1.5 1.5 0 0 0-2-2L55 47.56a1.51 1.51 0 0 0-.49.33L37.41 65H15V20h70Z" stroke-width="1" stroke="black"></path><path d="M74 40a7 7 0 1 0-7-7 7 7 0 0 0 7 7Zm0-11a4 4 0 1 1-4 4 4 4 0 0 1 4-4ZM21 59h13.11a1.5 1.5 0 0 0 0-3H23.77l17.5-26.76 8.47 12.95a1.5 1.5 0 1 0 2.51-1.64l-9.72-14.87a1.56 1.56 0 0 0-2.51 0l-20.28 31A1.5 1.5 0 0 0 21 59Z" stroke-width="1" stroke="black"></path></svg> 