<?xml version="1.0" encoding="UTF-8"?> <svg xmlns="http://www.w3.org/2000/svg" xmlns:xlink="http://www.w3.org/1999/xlink" xmlns:xodm="http://www.corel.com/coreldraw/odm/2003" xml:space="preserve" width="619.389mm" height="132.287mm" version="1.1" style="shape-rendering:geometricPrecision; text-rendering:geometricPrecision; image-rendering:optimizeQuality; fill-rule:evenodd; clip-rule:evenodd" viewBox="0 0 58745.02 12546.55"> <defs> <style type="text/css"> .fil0 {fill:#1F386A;fill-rule:nonzero} </style> </defs> <g id="Слой_x0020_1"> <metadata id="CorelCorpID_0Corel-Layer"></metadata> <g id="_1424823719872"> <g> <g> <path class="fil0" d="M55.8 45.43l5656.36 0c30.86,0.03 55.85,25.02 55.85,55.82l-0.03 5656.33c0.03,30.84 -24.96,55.83 -55.78,55.83l-5656.41 0c-30.75,0 -55.74,-24.99 -55.74,-55.81l-0.06 -5656.38c0.06,-30.78 25.05,-55.77 55.85,-55.77z"></path> <path class="fil0" d="M13436.72 45.43l5656.36 0c30.86,0.03 55.86,25.02 55.86,55.82l-0.06 5656.33c0.06,30.84 -24.94,55.83 -55.75,55.83l-5656.41 0c-30.75,0 -55.74,-24.99 -55.74,-55.81l-0.06 -5656.38c0.06,-30.78 25.05,-55.77 55.85,-55.77z"></path> <path class="fil0" d="M6746.26 45.43l5656.36 0c30.87,0.03 55.86,25.02 55.86,55.82l-0.06 5656.33c0.06,30.84 -24.93,55.83 -55.75,55.83l-5656.41 0c-30.75,0 -55.74,-24.99 -55.74,-55.81l-0.06 -5656.38c0.06,-30.78 25.05,-55.77 55.85,-55.77z"></path> <path class="fil0" d="M6746.26 6735.89l5656.36 0c30.87,-0.06 55.86,24.93 55.86,55.74l-0.06 5656.41c0.06,30.76 -24.93,55.75 -55.75,55.75l-5656.41 0.06c-30.75,-0.06 -55.74,-25.05 -55.74,-55.86l-0.06 -5656.3c0.06,-30.86 25.05,-55.85 55.85,-55.85z"></path> </g> <g> <path class="fil0" d="M13507.85 11654.7c-202.43,0 -367.68,164.14 -367.68,366.6 0,202.45 164.13,366.59 365.5,366.59 201.37,0 367.68,-164.69 367.68,-366.59 0,-201.9 -164.13,-366.6 -365.5,-366.6zm0 53.06c174,0 310.23,136.79 310.23,311.32 0,174.53 -137.32,315.15 -312.41,315.15 -175.09,0 -310.23,-136.78 -310.23,-311.31 0,-174.53 137.32,-315.16 312.41,-315.16z"></path> <path class="fil0" d="M13433.42 12068.88l76.07 0 93.01 129.66 84.82 0.03 -100.68 -141.16c51.44,-14.76 87,-52.53 87,-112.72 0,-34.47 -10.93,-61.28 -30.63,-79.87 -25.72,-25.72 -64.02,-40.48 -113.81,-40.48l-166.9 -0.03 0 374.78 71.11 0 0 -129.66 0 -0.56zm0 -180.54l93.04 0c46.52,0 73.86,20.8 73.86,58.54 0,37.74 -27.9,60.19 -73.86,60.19l-93.04 0 0 -118.73z"></path> </g> </g> <g> <polygon class="fil0" points="25772.06,618.84 24916.31,618.84 24916.31,48.7 27246.05,48.7 27246.05,618.84 26390.31,618.84 26390.31,2860.47 25771.5,2860.47 25771.5,618.84 "></polygon> <path class="fil0" d="M27415.67 1454.32c0,-799.39 630.86,-1454.32 1498.06,-1454.32 867.21,0 1490.41,646.72 1490.41,1454.32 0,807.6 -630.86,1454.31 -1498.06,1454.31 -867.21,0 -1490.41,-646.71 -1490.41,-1454.31zm2341.76 0c0,-482.02 -353.45,-883.65 -851.35,-883.65 -497.91,0 -843.7,393.93 -843.7,883.65 0,489.71 353.45,883.64 851.35,883.64 497.91,0 843.7,-393.93 843.7,-883.64z"></path> <path class="fil0" d="M30633.41 2450.65l365.5 -437.71c253.35,209.01 518.15,341.41 839.31,341.41 253.34,0 405.99,-100.68 405.99,-273.03 0,-156.47 -96.31,-236.9 -566.29,-357.29 -566.28,-144.45 -931.78,-301.48 -931.78,-867.76 0,-510.49 409.81,-847.52 984.31,-847.52 409.81,0 759.43,128.57 1044.5,357.84l-321.16 466.18c-248.95,-172.91 -494.08,-277.41 -730.98,-277.41 -236.9,0 -361.67,108.33 -361.67,253.34 0,184.94 120.38,245.12 606.79,369.33 570.11,148.81 891.83,353.45 891.83,851.35 0,558.1 -425.66,871.6 -1032.46,871.6 -425.66,0 -855.74,-148.82 -1192.75,-449.77l-1.15 -0.56z"></path> <polygon class="fil0" points="33330.81,48.7 33949.63,48.7 33949.63,1161.06 35090.42,1161.06 35090.42,48.7 35709.25,48.7 35709.25,2860.47 35090.42,2860.47 35090.42,1731.73 33949.63,1731.73 33949.63,2860.49 33330.81,2860.47 "></polygon> <polygon class="fil0" points="36329.69,48.7 36948.53,48.7 36948.53,1277.61 38089.32,48.17 38836.71,48.17 37692.09,1241.48 38889.23,2860.47 38146.21,2860.47 37274.62,1663.32 36949.06,2000.9 36949.06,2860.47 36330.25,2860.47 36330.25,48.7 "></polygon> <polygon class="fil0" points="39191.25,48.7 41311.99,48.7 41311.99,598.61 39805.71,598.61 39805.71,1169.28 41131.42,1169.25 41131.42,1719.68 39805.71,1719.68 39805.71,2310.04 41332.23,2310.07 41332.23,2860.49 39191.25,2860.47 "></polygon> <polygon class="fil0" points="41846.55,48.7 42417.22,48.7 43734.74,1779.87 43734.72,48.7 44345.34,48.7 44345.34,2860.47 43818.98,2860.47 42457.14,1072.97 42457.14,2860.47 41846.55,2860.47 "></polygon> <polygon class="fil0" points="45549.06,618.84 44693.32,618.84 44693.32,48.7 47023.06,48.7 47023.06,618.84 46167.32,618.84 46167.32,2860.47 45548.5,2860.47 45548.5,618.84 "></polygon> </g> <g> <path class="fil0" d="M26121.68 4849.87l570.11 0 1205.37 2832.01 -646.75 0.03 -257.17 -630.87 -1188.93 0 -257.17 630.87 -630.83 0 1205.37 -2832.01 0 -0.03zm650.54 1655.12l-373.69 -911.54 -373.69 911.54 747.39 0z"></path> <polygon class="fil0" points="28228.72,4869.58 28895.67,4869.58 29634.87,6058.51 30374.06,4869.58 31041.01,4869.58 31041.01,7681.35 30426.59,7681.35 30426.59,5845.67 29635.42,7046.66 29619.55,7046.66 28836.04,5857.73 28836.04,7681.35 28229.25,7681.35 28229.25,4869.58 "></polygon> <path class="fil0" d="M32577.41 4849.87l570.11 0 1205.37 2832.01 -646.74 0.03 -257.17 -630.87 -1188.93 0 -257.17 630.87 -630.84 0 1205.37 -2832.01 0 -0.03zm650.55 1655.12l-373.69 -911.54 -373.69 911.54 747.39 0z"></path> <polygon class="fil0" points="34683.9,4869.58 35302.71,4869.58 35302.71,7118.89 36704.5,7118.89 36704.5,7681.35 34683.9,7681.35 "></polygon> <polygon class="fil0" points="37062.32,4869.58 37681.16,4869.58 37681.16,7681.35 37062.32,7681.35 "></polygon> <polygon class="fil0" points="39074.73,6572.82 37994.13,4869.58 38716.88,4869.58 39387.67,5998.34 40070.51,4869.58 40773.61,4869.58 39693.01,6560.8 39693.01,7681.35 39074.17,7681.35 39074.17,6572.85 "></polygon> <polygon class="fil0" points="42244.86,4869.58 44385.82,4869.58 44385.82,5432.03 42863.68,5432.03 42863.68,6030.61 44205.28,6030.61 44205.28,6593.06 42863.68,6593.09 42863.68,7681.91 42244.86,7681.91 42244.86,4870.14 "></polygon> <path class="fil0" d="M45526.08 4849.87l570.11 0 1205.37 2832.01 -646.75 0.03 -257.17 -630.87 -1188.93 0 -257.17 630.87 -630.83 0 1205.37 -2832.01 0 -0.03zm650.54 1655.12l-373.69 -911.54 -373.69 911.54 747.39 0z"></path> <polygon class="fil0" points="47633.12,4869.58 48203.8,4869.58 49521.33,6600.75 49521.33,4869.58 50131.92,4869.58 50131.92,7681.35 49605.56,7681.35 48243.72,5893.84 48243.72,7681.35 47633.12,7681.35 "></polygon> <polygon class="fil0" points="50752.91,4869.58 51371.72,4869.58 51371.72,7118.89 52773.51,7118.89 52773.51,7681.35 50752.91,7681.35 "></polygon> <path class="fil0" d="M54208.12 4849.87l570.11 0 1205.37 2832.01 -646.72 0.03 -257.17 -630.87 -1188.93 0 -257.17 630.87 -630.83 0 1205.37 -2832.01 -0.03 -0.03zm650.54 1655.12l-373.69 -911.54 -373.69 911.54 747.39 0z"></path> <path class="fil0" d="M56315.17 4869.58l1285.23 0c357.29,0 634.69,100.67 819.63,285.07 156.47,156.47 240.73,377.52 240.73,650.54 0,454.13 -245.12,739.2 -602.41,871.59l686.67 1004 -722.76 0 -610.62 -900.06 -478.19 0.03 0 900.06 -618.82 -0.03 0 -2811.77 0.53 0.56zm1245.29 1365.67c301.48,0 473.83,-160.86 473.83,-405.43 0,-264.83 -184.93,-401.6 -485.85,-401.6l-614.45 -0.03 0 807.58 626.47 0.03 0 -0.56z"></path> </g> <g> <path class="fil0" d="M25145.58 11297.42l0 -1606.96 618.82 0 0 1590.55c0,457.96 228.72,694.89 606.79,694.89 378.08,0 606.8,-228.72 606.8,-674.61l0 -1610.79 618.78 -0.03 0 1586.72c0,851.91 -478.19,1269.36 -1233.26,1269.36 -755.08,0 -1217.39,-421.84 -1217.39,-1249.12l-0.53 0z"></path> <polygon class="fil0" points="28150.47,9690.99 28721.14,9690.99 30038.67,11422.16 30038.67,9690.99 30649.26,9690.99 30649.26,12502.76 30122.93,12502.76 28761.09,10715.25 28761.09,12502.76 28150.47,12502.76 "></polygon> <polygon class="fil0" points="31247.84,9690.99 31866.65,9690.99 31866.65,12502.76 31247.84,12502.76 "></polygon> <polygon class="fil0" points="32168.69,9690.99 32851.53,9690.99 33586.89,11671.65 34322.26,9690.99 34989.21,9690.99 33852.25,12523 33306.18,12523 32169.22,9690.99 "></polygon> <polygon class="fil0" points="35285.75,9690.99 37407.02,9690.99 37407.02,10241.42 35900.76,10241.42 35900.76,10812.1 37226.47,10812.1 37226.47,11362.53 35900.76,11362.53 35900.76,11952.89 37427.26,11952.89 37427.26,12503.32 35286.31,12503.32 35286.31,9691.55 "></polygon> <path class="fil0" d="M37906.01 9690.99l1285.24 0c357.28,0 634.69,100.67 819.62,285.07 156.47,156.47 240.73,377.52 240.73,650.54 0,454.13 -245.11,739.2 -602.4,871.6l686.67 1003.99 -723.31 0.03 -610.63 -900.06 -478.19 0 0 900.06 -618.82 0 0 -2811.77 1.09 0.53zm1245.32 1365.67c301.48,0 473.83,-160.86 473.83,-405.99 0,-265.36 -184.94,-401.59 -485.86,-401.59l-614.48 0 0 807.57 626.51 0z"></path> <path class="fil0" d="M40491.8 12092.94l365.51 -437.71c253.34,209.01 518.14,341.41 839.3,341.41 253.35,0 405.99,-100.68 405.99,-273.03 0,-156.47 -96.31,-236.9 -566.28,-357.28 -566.28,-144.46 -931.79,-301.49 -931.79,-867.77 0,-509.93 409.82,-847.52 984.31,-847.52 409.82,0 759.44,128.57 1044.51,357.29l-321.17 466.17c-248.95,-172.91 -494.07,-277.41 -730.97,-277.41 -236.91,0 -361.68,108.33 -361.68,253.34 0,184.94 120.38,245.12 606.79,369.34 570.67,148.81 891.84,353.44 891.84,851.91 0,558.09 -425.67,871.59 -1032.46,871.59 -425.67,0 -855.74,-148.81 -1192.76,-449.77l-1.15 -0.56z"></path> <polygon class="fil0" points="43165.69,9690.99 43784.51,9690.99 43784.51,12502.76 43165.69,12502.76 "></polygon> <polygon class="fil0" points="44961.98,10261.13 44106.23,10261.13 44106.23,9690.46 46435.97,9690.46 46435.97,10261.13 45580.23,10261.13 45580.23,12502.79 44961.42,12502.76 44961.42,10261.1 "></polygon> <polygon class="fil0" points="46750.57,9690.99 48871.84,9690.99 48871.84,10241.42 47365.55,10241.42 47365.55,10812.1 48691.29,10812.1 48691.29,11362.53 47365.55,11362.53 47365.55,11952.89 48892.08,11952.89 48892.08,12503.32 46751.13,12503.32 46751.13,9691.55 "></polygon> <polygon class="fil0" points="49990.76,10261.13 49135.02,10261.13 49135.02,9690.46 51464.77,9690.46 51464.77,10261.13 50609.02,10261.13 50609.02,12502.79 49990.2,12502.76 49990.2,10261.1 "></polygon> <polygon class="fil0" points="51793.03,9690.99 52411.87,9690.99 52411.87,12502.76 51793.03,12502.76 "></polygon> </g> </g> </g> </svg> 