<?xml version="1.0" encoding="UTF-8"?> <svg xmlns="http://www.w3.org/2000/svg" viewBox="0 0 100 100" fill-rule="evenodd"><rect x="0" y="0" width="100" height="100" fill="#0d7c94" rx="20" ry="20" mask="url(#037d28d5597ecd)"></rect><mask id="037d28d5597ecd"><rect x="0" y="0" width="100" height="100" fill="white" rx="20" ry="20"></rect><path d="M66 22.57V17h7.5a1.5 1.5 0 0 0 0-3h-18a1.5 1.5 0 0 0 0 3H63v5.56a31.81 31.81 0 1 0 3 0Zm-1.65 60.65A28.85 28.85 0 1 1 93.2 54.37a28.88 28.88 0 0 1-28.85 28.85Z" fill="black"></path><path d="M57.14 73.94A20.93 20.93 0 0 1 43.5 54.37a1.5 1.5 0 0 0-3 0 23.94 23.94 0 0 0 15.6 22.38 1.36 1.36 0 0 0 .52.09 1.5 1.5 0 0 0 .52-2.9Zm20.03-3.13a20.84 20.84 0 0 1-10 4.22 1.5 1.5 0 0 0 .19 3h.2A23.76 23.76 0 0 0 79 73.17a1.5 1.5 0 1 0-1.85-2.36Zm-7.84-16.44a4.94 4.94 0 0 0-.77-2.63l10.33-10.59a1.5 1.5 0 0 0-2.15-2.09L66.29 49.78a5 5 0 1 0 3 4.59Zm-5 2a2 2 0 1 1 2-2 2 2 0 0 1-1.98 1.99ZM25 55.5a1.5 1.5 0 0 0-1.5-1.5h-18a1.5 1.5 0 0 0 0 3h18a1.5 1.5 0 0 0 1.5-1.5ZM26.5 68h-18a1.5 1.5 0 0 0 0 3h18a1.5 1.5 0 0 0 0-3Zm0-29h-18a1.5 1.5 0 0 0 0 3h18a1.5 1.5 0 0 0 0-3Z" fill="black"></path></mask></svg> 