<?xml version="1.0" encoding="UTF-8"?> <svg xmlns="http://www.w3.org/2000/svg" viewBox="0 0 100 100" fill-rule="evenodd"><rect x="0" y="0" width="100" height="100" fill="#0d7c94" rx="20" ry="20" mask="url(#f7a56a0eb31961)"></rect><mask id="f7a56a0eb31961"><rect x="0" y="0" width="100" height="100" fill="white" rx="20" ry="20"></rect><path d="m94.33 28.26-15.8-3.52a8.45 8.45 0 0 0-7.67-14.5c-3.83 1-9.48 8-11.05 10-.56-2.47-2.7-11.24-5.76-13.74a8.45 8.45 0 0 0-13.1 9.87l-17.29-3.85a1.5 1.5 0 0 0-1.79 1.14L18.68 28a1.5 1.5 0 0 0 1.14 1.79L85 44.3V81H52V43.5a1.5 1.5 0 0 0-3 0V81H16V41h21.5a1.5 1.5 0 0 0 0-3h-23a1.5 1.5 0 0 0-1.5 1.5v43a1.5 1.5 0 0 0 1.5 1.5h72a1.5 1.5 0 0 0 1.5-1.5V45l2.48.55a1.48 1.48 0 0 0 .33 0 1.5 1.5 0 0 0 1.46-1.17l3.19-14.32a1.5 1.5 0 0 0-1.13-1.8Zm-22.75-15.1a5.45 5.45 0 0 1 2.64 10.57h-.1l-11.27-2.48c2.61-3.25 6.65-7.57 8.73-8.09Zm-26.3 4.12a5.45 5.45 0 0 1 6.88-8.45c1.66 1.36 3.48 7 4.47 11l-11.27-2.47Zm44.39 25L21.93 27.17l2.54-11.4 67.74 15.1Z" fill="black"></path></mask></svg> 