<?xml version="1.0" encoding="UTF-8" standalone="no"?> <svg xmlns="http://www.w3.org/2000/svg" version="1.0" width="300.000000pt" height="300.000000pt" viewBox="0 0 300.000000 300.000000" preserveAspectRatio="xMidYMid meet"><metadata> Created by potrace 1.10, written by Peter Selinger 2001-2011 </metadata><g transform="translate(0.000000,300.000000) scale(0.100000,-0.100000)" fill="#000000" stroke="none"><path d="M0 1500 l0 -1500 1500 0 1500 0 0 1500 0 1500 -1500 0 -1500 0 0 -1500z m2405 1319 c53 -5 45 -16 -15 -21 -34 -3 -35 -4 -41 -53 l-5 -50 -5 50 -4 50 -47 3 c-27 2 -48 7 -48 12 0 5 21 10 48 12 l47 3 4 50 5 50 5 -50 6 -50 50 -6z m-145 -210 l35 -6 -35 -4 c-31 -4 -35 -8 -39 -39 l-4 -35 -6 35 c-5 31 -10 35 -41 39 l-35 4 35 6 c30 5 36 11 39 36 l4 30 6 -30 c5 -25 12 -31 41 -36z m233 0 c22 -2 22 -2 0 -6 -17 -3 -23 -12 -24 -31 -1 -22 -3 -23 -6 -6 -2 12 -14 26 -26 32 l-22 11 23 0 c16 1 22 7 23 24 l2 22 4 -22 c3 -15 12 -23 26 -24z m242 -228 c-6 -5 -57 -21 -115 -35 -196 -49 -512 -159 -760 -266 -154 -66 -471 -222 -539 -264 -22 -14 -43 -26 -46 -26 -10 0 -196 -118 -329 -210 -200 -138 -279 -201 -387 -309 -105 -105 -146 -156 -176 -216 l-21 -39 -7 34 c-5 19 -8 67 -7 106 1 84 22 136 83 206 39 45 203 176 351 281 l68 48 0 296 0 296 42 -7 c96 -15 192 -93 216 -174 7 -22 12 -86 12 -143 l0 -104 -38 -20 c-101 -53 -220 -137 -226 -159 -4 -15 -58 -63 -157 -136 -238 -177 -301 -249 -316 -357 l-6 -48 146 148 c80 81 150 147 156 147 5 0 16 6 23 13 30 29 97 77 106 77 6 0 12 4 14 8 3 8 153 114 229 162 263 167 588 331 899 454 219 87 278 116 235 116 -75 -1 -448 -122 -680 -221 -69 -29 -74 -30 -215 -27 l-145 3 2 33 c0 18 4 43 7 56 11 43 81 120 132 146 l49 25 465 5 c256 3 470 8 475 12 6 3 80 21 165 39 85 17 180 37 210 44 68 16 97 18 85 6z m-545 -229 c0 -4 -14 -24 -30 -44 -46 -55 -127 -89 -227 -96 -46 -2 -83 -1 -83 4 0 5 51 29 114 52 62 24 135 54 162 67 54 26 64 29 64 17z m-372 -509 l-3 -358 -30 -54 c-42 -77 -114 -126 -200 -138 l-45 -6 0 386 0 387 23 14 c32 21 241 125 250 126 5 0 7 -161 5 -357z m-417 323 c-20 -24 -220 -118 -244 -114 -20 3 -19 5 13 23 69 38 215 105 229 105 10 0 11 -3 2 -14z m-275 -392 c-3 -9 -6 -121 -6 -250 l0 -234 -22 0 c-112 0 -227 110 -244 231 l-6 44 128 112 c123 106 164 133 150 97z m-835 -94 c16 0 29 -4 29 -10 0 -5 -13 -10 -30 -10 -27 0 -30 -3 -31 -32 l-1 -33 -7 30 c-5 25 -12 31 -39 33 -42 4 -41 20 1 24 27 3 33 8 37 33 l4 30 4 -32 c3 -29 7 -33 33 -33z m-149 -91 c23 -1 23 -1 -1 -8 -13 -3 -28 -15 -32 -26 -7 -19 -8 -19 -8 3 -1 16 -7 22 -23 23 l-23 2 23 4 c14 3 22 12 23 26 l0 22 9 -22 c6 -14 18 -23 32 -24z m93 -118 l40 -5 -40 -5 c-40 -6 -40 -7 -46 -56 -6 -51 -9 -47 -12 15 -2 34 -4 35 -47 41 -43 6 -43 6 -9 7 43 2 61 20 59 59 -4 51 3 49 9 -2 6 -50 6 -50 46 -54z m294 -356 c31 -15 41 -39 41 -97 l0 -38 -44 0 -45 0 -3 48 c-2 26 -7 46 -13 45 -6 -2 -10 -50 -10 -118 0 -68 4 -116 10 -117 6 -2 11 16 13 40 l3 43 42 -3 42 -3 -1 -47 c0 -63 -28 -87 -102 -88 -43 0 -57 5 -77 25 -24 23 -25 30 -25 148 0 127 4 143 45 165 29 16 91 15 124 -3z m334 -17 c22 -26 23 -101 1 -122 -14 -15 -14 -17 0 -32 12 -11 16 -36 16 -90 l0 -74 -40 0 -40 0 0 64 c0 68 -6 96 -21 96 -5 0 -9 -36 -9 -80 l0 -80 -45 0 -45 0 0 168 c0 93 3 171 6 174 3 4 40 4 82 1 60 -4 81 -9 95 -25z m287 -3 c0 -32 -2 -35 -30 -35 -26 0 -30 -3 -30 -29 0 -24 5 -29 31 -35 26 -5 30 -10 27 -33 -2 -20 -10 -29 -28 -33 -20 -5 -26 -13 -28 -42 -3 -35 -2 -37 30 -40 29 -3 33 -6 33 -33 l0 -30 -77 -3 -78 -3 0 169 c0 93 3 171 6 174 3 4 37 6 75 7 l69 0 0 -34z m256 24 c6 -11 54 -287 54 -316 0 -20 -5 -23 -44 -23 -41 0 -45 2 -48 28 -4 34 -30 36 -38 2 -5 -22 -12 -25 -54 -28 -43 -3 -47 -1 -42 16 4 11 15 85 26 166 11 81 21 150 24 155 7 11 115 11 122 0z m332 -26 c3 -30 1 -33 -22 -33 -18 0 -26 -5 -26 -17 -1 -10 -2 -72 -3 -138 l-2 -120 -42 -3 -43 -3 0 140 0 141 -30 0 c-26 0 -30 4 -30 28 0 16 2 31 5 34 3 3 47 5 98 4 l92 -1 3 -32z m192 -139 l0 -175 -42 3 -43 3 -3 160 c-1 87 0 165 2 172 3 8 22 13 46 13 l40 0 0 -176z m185 164 c2 -7 8 -52 12 -100 7 -71 6 -85 -4 -76 -7 6 -13 19 -13 29 0 10 -5 21 -11 24 -6 4 -8 13 -5 21 3 7 0 16 -6 20 -8 5 -9 -9 -4 -47 4 -30 10 -74 13 -99 7 -56 18 -70 53 -70 25 0 29 5 40 50 7 28 10 60 6 73 -3 12 -1 29 4 37 6 9 5 17 -2 21 -8 5 -6 12 5 24 19 18 23 45 7 45 -9 0 -40 -90 -40 -117 0 -7 -5 -13 -10 -13 -13 0 -2 160 13 178 11 14 73 16 82 2 3 -5 -1 -49 -9 -97 -8 -48 -17 -115 -21 -148 -10 -97 -9 -95 -74 -95 -65 0 -81 11 -81 56 0 18 -6 63 -14 101 -8 37 -18 96 -22 131 l-7 62 42 0 c24 0 43 -5 46 -12z m393 -25 c3 -31 1 -33 -27 -33 -21 0 -32 -6 -36 -21 -8 -24 1 -35 30 -41 14 -2 21 -12 23 -36 3 -28 0 -32 -22 -32 -28 0 -34 -11 -28 -52 4 -23 9 -28 32 -28 31 0 46 -24 34 -54 -5 -14 -19 -16 -83 -14 l-76 3 -3 160 c-1 87 0 164 2 171 3 8 30 11 78 10 l73 -1 3 -32z"></path><path d="M1353 2230 c-73 -17 -163 -103 -163 -156 l0 -24 126 0 127 0 116 46 c64 25 165 64 225 85 61 21 114 43 120 49 12 12 -501 12 -551 0z"></path><path d="M897 2223 c-11 -11 -8 -441 3 -448 5 -3 47 16 92 43 l83 49 6 84 c9 131 -31 214 -128 263 -35 18 -46 19 -56 9z"></path><path d="M1665 1883 c-38 -19 -73 -41 -77 -47 -5 -6 -7 -164 -5 -351 2 -335 2 -340 23 -343 35 -5 116 58 143 111 23 48 24 53 25 355 1 357 9 336 -109 275z"></path><path d="M983 1429 c-46 -39 -84 -78 -84 -87 -5 -74 42 -147 118 -186 64 -32 63 -35 63 164 0 99 -3 180 -7 180 -5 -1 -45 -32 -90 -71z"></path><path d="M423 883 c-7 -2 -13 -14 -13 -24 0 -25 16 -17 23 11 3 11 4 20 4 19 -1 0 -8 -3 -14 -6z"></path><path d="M406 813 c-3 -10 -4 -50 -3 -90 2 -56 6 -76 21 -90 18 -17 18 -17 7 5 -7 12 -12 61 -13 107 -1 87 -3 98 -12 68z"></path><path d="M726 881 c-3 -4 -4 -54 -3 -110 1 -57 -2 -102 -7 -104 -6 -2 -2 -6 7 -10 13 -5 16 -1 15 16 -1 12 6 38 15 58 16 31 16 39 3 63 -9 18 -11 38 -6 62 6 25 5 34 -5 34 -8 0 -16 -4 -19 -9z"></path><path d="M817 870 c6 -8 13 -28 16 -45 l4 -30 2 31 c0 20 -6 37 -16 45 -16 12 -16 12 -6 -1z"></path><path d="M770 830 c0 -29 4 -40 13 -37 6 2 12 19 12 37 0 18 -6 35 -12 38 -9 2 -13 -9 -13 -38z"></path><path d="M803 774 c-3 -8 1 -22 8 -29 12 -12 14 -10 15 15 1 32 -13 40 -23 14z"></path><path d="M1044 875 c-4 -8 -7 -65 -8 -127 -1 -94 2 -112 16 -122 24 -15 32 -2 17 26 -15 27 -13 54 7 86 13 20 13 26 -2 52 -15 24 -16 35 -7 64 9 30 9 36 -3 36 -8 0 -17 -7 -20 -15z"></path><path d="M1317 883 c-4 -3 -7 -25 -7 -47 1 -39 1 -40 16 -21 15 19 16 15 10 -48 -6 -62 -5 -68 11 -65 16 3 17 12 14 68 -3 60 -2 63 14 50 15 -13 16 -11 12 17 -3 18 -8 37 -12 42 -7 12 -48 15 -58 4z"></path><path d="M1286 694 c-9 -24 -7 -64 4 -64 14 0 50 42 44 51 -3 5 -13 13 -24 19 -13 7 -19 6 -24 -6z"></path><path d="M1373 691 c-10 -15 -8 -23 9 -41 26 -28 44 -13 31 26 -12 35 -25 40 -40 15z"></path><path d="M1616 873 c4 -10 11 -63 14 -118 6 -111 19 -120 15 -10 -1 51 3 80 17 108 l18 37 -36 0 c-31 0 -35 -3 -28 -17z"></path><path d="M1880 752 c0 -61 3 -113 8 -115 9 -7 9 209 0 219 -5 4 -8 -43 -8 -104z"></path><path d="M2418 893 c-16 -4 -22 -15 -19 -35 0 -5 -3 -8 -8 -8 -11 0 -9 -199 2 -217 4 -6 16 -13 27 -16 22 -6 27 12 8 31 -20 20 -16 65 9 91 24 25 24 25 5 40 -30 25 -35 62 -11 87 21 23 16 33 -13 27z"></path></g></svg> 