<?xml version="1.0" encoding="UTF-8"?> <svg xmlns="http://www.w3.org/2000/svg" width="13" height="8" viewBox="0 0 13 8" fill="none"> <path d="M6.36045 7.28686L0.188778 1.14714L0.188778 1.16631C0.0684734 1.04685 0.000549876 0.884494 -4.90165e-05 0.714956C-0.000647909 0.545418 0.0661255 0.382585 0.185584 0.26228C0.305042 0.141975 0.467397 0.0740522 0.636936 0.0734533C0.806474 0.0728544 0.969307 0.139629 1.08961 0.259087L5.72156 4.8527L6.36045 5.49194L6.99933 4.8527L11.6313 0.259087C11.6857 0.185487 11.7553 0.124434 11.8353 0.0800628C11.9154 0.0356917 12.004 0.00903743 12.0953 0.00190538C12.1865 -0.00522666 12.2782 0.0073299 12.3642 0.0387249C12.4502 0.0701198 12.5284 0.11962 12.5936 0.183874C12.6588 0.248128 12.7094 0.325637 12.742 0.411152C12.7746 0.496667 12.7885 0.588192 12.7826 0.679532C12.7768 0.770871 12.7514 0.859893 12.7082 0.940569C12.665 1.02125 12.6049 1.09169 12.5321 1.14714L6.36045 7.28686Z" fill="#478BE5"></path> </svg> 