<?xml version="1.0" encoding="UTF-8"?> <svg xmlns="http://www.w3.org/2000/svg" width="390" height="571" viewBox="0 0 390 571" fill="none"> <rect opacity="0.5" width="191" height="45" transform="matrix(7.87777e-08 1 1 -2.42541e-08 344 0)" fill="#0E365C"></rect> <rect opacity="0.77" width="189" height="205" transform="matrix(8.90775e-08 1 1 -2.14497e-08 184 191)" fill="#0E365C"></rect> <rect width="191" height="388" transform="matrix(8.90832e-08 1 1 -2.14483e-08 1.00049 380)" fill="#0E365C"></rect> <path fill-rule="evenodd" clip-rule="evenodd" d="M61.6815 571L61.6815 0L60.7101 2.40652e-09L60.7102 571H61.6815Z" fill="url(#paint0_linear_15155_217)"></path> <path fill-rule="evenodd" clip-rule="evenodd" d="M122.877 571L122.877 1.82299e-08L121.906 2.06364e-08L121.906 571H122.877Z" fill="url(#paint1_linear_15155_217)"></path> <path fill-rule="evenodd" clip-rule="evenodd" d="M184.072 571L184.072 3.64616e-08L183.101 3.88682e-08L183.101 571H184.072Z" fill="url(#paint2_linear_15155_217)"></path> <path fill-rule="evenodd" clip-rule="evenodd" d="M245.268 571L245.268 5.46952e-08L244.297 5.71017e-08L244.297 571H245.268Z" fill="url(#paint3_linear_15155_217)"></path> <path fill-rule="evenodd" clip-rule="evenodd" d="M306.464 571L306.463 7.29269e-08L305.492 7.53334e-08L305.492 571H306.464Z" fill="url(#paint4_linear_15155_217)"></path> <path fill-rule="evenodd" clip-rule="evenodd" d="M390 571L390 9.78143e-08L389.029 1.00221e-07L389.029 571H390Z" fill="url(#paint5_linear_15155_217)"></path> <path fill-rule="evenodd" clip-rule="evenodd" d="M0.000213623 190.57L388.543 190.57L388.543 190.096L0.000213623 190.096V190.57Z" fill="url(#paint6_linear_15155_217)"></path> <path fill-rule="evenodd" clip-rule="evenodd" d="M0.000213623 380.905L388.543 380.905V380.431L0.000213623 380.431V380.905Z" fill="url(#paint7_linear_15155_217)"></path> <defs> <linearGradient id="paint0_linear_15155_217" x1="0.000213623" y1="0" x2="0.000213623" y2="571" gradientUnits="userSpaceOnUse"> <stop stop-color="#3C6488" stop-opacity="0"></stop> <stop offset="0.515625" stop-color="#3C6488"></stop> <stop offset="1" stop-color="#3C6488" stop-opacity="0"></stop> </linearGradient> <linearGradient id="paint1_linear_15155_217" x1="0.000213623" y1="0" x2="0.000213623" y2="571" gradientUnits="userSpaceOnUse"> <stop stop-color="#3C6488" stop-opacity="0"></stop> <stop offset="0.515625" stop-color="#3C6488"></stop> <stop offset="1" stop-color="#3C6488" stop-opacity="0"></stop> </linearGradient> <linearGradient id="paint2_linear_15155_217" x1="0.000213623" y1="0" x2="0.000213623" y2="571" gradientUnits="userSpaceOnUse"> <stop stop-color="#3C6488" stop-opacity="0"></stop> <stop offset="0.515625" stop-color="#3C6488"></stop> <stop offset="1" stop-color="#3C6488" stop-opacity="0"></stop> </linearGradient> <linearGradient id="paint3_linear_15155_217" x1="0.000213623" y1="0" x2="0.000213623" y2="571" gradientUnits="userSpaceOnUse"> <stop stop-color="#3C6488" stop-opacity="0"></stop> <stop offset="0.515625" stop-color="#3C6488"></stop> <stop offset="1" stop-color="#3C6488" stop-opacity="0"></stop> </linearGradient> <linearGradient id="paint4_linear_15155_217" x1="0.000213623" y1="0" x2="0.000213623" y2="571" gradientUnits="userSpaceOnUse"> <stop stop-color="#3C6488" stop-opacity="0"></stop> <stop offset="0.515625" stop-color="#3C6488"></stop> <stop offset="1" stop-color="#3C6488" stop-opacity="0"></stop> </linearGradient> <linearGradient id="paint5_linear_15155_217" x1="0.000213623" y1="0" x2="0.000213623" y2="571" gradientUnits="userSpaceOnUse"> <stop stop-color="#3C6488" stop-opacity="0"></stop> <stop offset="0.515625" stop-color="#3C6488"></stop> <stop offset="1" stop-color="#3C6488" stop-opacity="0"></stop> </linearGradient> <linearGradient id="paint6_linear_15155_217" x1="388.543" y1="380.431" x2="0.000297591" y2="380.431" gradientUnits="userSpaceOnUse"> <stop stop-color="#3C6488"></stop> <stop offset="0.515625" stop-color="#3C6488"></stop> <stop offset="1" stop-color="#3C6488" stop-opacity="0"></stop> </linearGradient> <linearGradient id="paint7_linear_15155_217" x1="388.543" y1="380.431" x2="0.000297591" y2="380.431" gradientUnits="userSpaceOnUse"> <stop stop-color="#3C6488"></stop> <stop offset="0.515625" stop-color="#3C6488"></stop> <stop offset="1" stop-color="#3C6488" stop-opacity="0"></stop> </linearGradient> </defs> </svg> 