<?xml version="1.0" encoding="UTF-8"?> <svg xmlns="http://www.w3.org/2000/svg" width="873" height="616" viewBox="0 0 873 616" fill="none"> <path fill-rule="evenodd" clip-rule="evenodd" d="M87.2944 122.258L785.645 122.258L785.645 123.258L87.2944 123.258L87.2944 122.258Z" fill="url(#paint0_linear_14957_826)"></path> <path fill-rule="evenodd" clip-rule="evenodd" d="M6.10352e-05 245.687L872.938 245.688L872.938 246.688L6.102e-05 246.687L6.10352e-05 245.687Z" fill="url(#paint1_linear_14957_826)"></path> <path fill-rule="evenodd" clip-rule="evenodd" d="M0.000305176 369.117L872.939 369.117L872.939 370.117L0.000305161 370.117L0.000305176 369.117Z" fill="url(#paint2_linear_14957_826)"></path> <path fill-rule="evenodd" clip-rule="evenodd" d="M87.2944 492.546L785.645 492.546L785.645 493.546L87.2944 493.546L87.2944 492.546Z" fill="url(#paint3_linear_14957_826)"></path> <path fill-rule="evenodd" clip-rule="evenodd" d="M609.831 61.5811L609.831 554.225L608.831 554.225L608.831 61.5811L609.831 61.5811Z" fill="url(#paint4_linear_14957_826)"></path> <path fill-rule="evenodd" clip-rule="evenodd" d="M494.59 0.000305176L494.59 615.805L493.59 615.805L493.59 0.000305137L494.59 0.000305176Z" fill="url(#paint5_linear_14957_826)"></path> <path fill-rule="evenodd" clip-rule="evenodd" d="M379.349 0.000305176L379.349 615.805L378.349 615.805L378.349 0.000305137L379.349 0.000305176Z" fill="url(#paint6_linear_14957_826)"></path> <path fill-rule="evenodd" clip-rule="evenodd" d="M264.109 61.5811L264.109 554.225L263.109 554.225L263.109 61.5811L264.109 61.5811Z" fill="url(#paint7_linear_14957_826)"></path> <defs> <linearGradient id="paint0_linear_14957_826" x1="785.645" y1="123.258" x2="87.2944" y2="123.258" gradientUnits="userSpaceOnUse"> <stop stop-color="#3C6488" stop-opacity="0"></stop> <stop offset="0.515625" stop-color="#3C6488"></stop> <stop offset="1" stop-color="#3C6488" stop-opacity="0"></stop> </linearGradient> <linearGradient id="paint1_linear_14957_826" x1="872.938" y1="246.688" x2="6.102e-05" y2="246.687" gradientUnits="userSpaceOnUse"> <stop stop-color="#3C6488" stop-opacity="0"></stop> <stop offset="0.515625" stop-color="#3C6488"></stop> <stop offset="1" stop-color="#3C6488" stop-opacity="0"></stop> </linearGradient> <linearGradient id="paint2_linear_14957_826" x1="872.939" y1="370.117" x2="0.000305161" y2="370.117" gradientUnits="userSpaceOnUse"> <stop stop-color="#3C6488" stop-opacity="0"></stop> <stop offset="0.515625" stop-color="#3C6488"></stop> <stop offset="1" stop-color="#3C6488" stop-opacity="0"></stop> </linearGradient> <linearGradient id="paint3_linear_14957_826" x1="785.645" y1="493.546" x2="87.2944" y2="493.546" gradientUnits="userSpaceOnUse"> <stop stop-color="#3C6488" stop-opacity="0"></stop> <stop offset="0.515625" stop-color="#3C6488"></stop> <stop offset="1" stop-color="#3C6488" stop-opacity="0"></stop> </linearGradient> <linearGradient id="paint4_linear_14957_826" x1="608.831" y1="554.225" x2="608.831" y2="61.5811" gradientUnits="userSpaceOnUse"> <stop stop-color="#3C6488" stop-opacity="0"></stop> <stop offset="0.515625" stop-color="#3C6488"></stop> <stop offset="1" stop-color="#3C6488" stop-opacity="0"></stop> </linearGradient> <linearGradient id="paint5_linear_14957_826" x1="493.59" y1="615.805" x2="493.59" y2="0.000305137" gradientUnits="userSpaceOnUse"> <stop stop-color="#3C6488" stop-opacity="0"></stop> <stop offset="0.515625" stop-color="#3C6488"></stop> <stop offset="1" stop-color="#3C6488" stop-opacity="0"></stop> </linearGradient> <linearGradient id="paint6_linear_14957_826" x1="378.349" y1="615.805" x2="378.349" y2="0.000305137" gradientUnits="userSpaceOnUse"> <stop stop-color="#3C6488" stop-opacity="0"></stop> <stop offset="0.515625" stop-color="#3C6488"></stop> <stop offset="1" stop-color="#3C6488" stop-opacity="0"></stop> </linearGradient> <linearGradient id="paint7_linear_14957_826" x1="263.109" y1="554.225" x2="263.109" y2="61.5811" gradientUnits="userSpaceOnUse"> <stop stop-color="#3C6488" stop-opacity="0"></stop> <stop offset="0.515625" stop-color="#3C6488"></stop> <stop offset="1" stop-color="#3C6488" stop-opacity="0"></stop> </linearGradient> </defs> </svg> 