<?xml version="1.0" encoding="UTF-8"?> <svg xmlns="http://www.w3.org/2000/svg" width="80" height="40" viewBox="0 0 80 40" fill="none"> <rect width="80" height="40" fill="#0F2438"></rect> <path d="M43.4443 13.7109H36.4443V26.2909H43.4443V13.7109Z" fill="#FF5F00"></path> <path d="M36.8891 20C36.8877 18.7886 37.1621 17.5927 37.6915 16.5031C38.2209 15.4135 38.9914 14.4587 39.9447 13.7111C38.7646 12.7833 37.3472 12.2061 35.8546 12.0458C34.362 11.8854 32.8544 12.1483 31.5041 12.8043C30.1538 13.4603 29.0154 14.483 28.2189 15.7554C27.4224 17.0279 27 18.4988 27 20C27 21.5012 27.4224 22.9721 28.2189 24.2446C29.0154 25.517 30.1538 26.5397 31.5041 27.1957C32.8544 27.8517 34.362 28.1146 35.8546 27.9542C37.3472 27.7939 38.7646 27.2167 39.9447 26.2889C38.9914 25.5413 38.2209 24.5865 37.6915 23.4969C37.1621 22.4073 36.8877 21.2114 36.8891 20Z" fill="#EB001B"></path> <path d="M52.8866 20C52.8862 21.5008 52.4637 22.9712 51.6673 24.2432C50.8709 25.5153 49.7328 26.5376 48.383 27.1936C47.0331 27.8495 45.526 28.1125 44.0338 27.9525C42.5416 27.7925 41.1245 27.216 39.9443 26.2889C40.8964 25.5403 41.6661 24.5853 42.1954 23.4959C42.7247 22.4065 42.9997 21.2112 42.9997 20C42.9997 18.7889 42.7247 17.5935 42.1954 16.5041C41.6661 15.4147 40.8964 14.4597 39.9443 13.7111C41.1245 12.784 42.5416 12.2075 44.0338 12.0475C45.526 11.8876 47.0331 12.1506 48.383 12.8065C49.7328 13.4624 50.8709 14.4848 51.6673 15.7568C52.4637 17.0289 52.8862 18.4993 52.8866 20Z" fill="#F79E1B"></path> </svg> 