<?xml version="1.0" encoding="UTF-8"?> <svg xmlns="http://www.w3.org/2000/svg" width="1200" height="402" viewBox="0 0 1200 402" fill="none"> <path fill-rule="evenodd" clip-rule="evenodd" d="M1200 63.5L1.66101e-08 63.5L0 62.5L1200 62.5V63.5Z" fill="url(#paint0_linear_14975_875)"></path> <path fill-rule="evenodd" clip-rule="evenodd" d="M1200 126.5L1.66101e-08 126.5L0 125.5L1200 125.5V126.5Z" fill="url(#paint1_linear_14975_875)"></path> <path fill-rule="evenodd" clip-rule="evenodd" d="M1200 189.5L1.66101e-08 189.5L0 188.5L1200 188.5V189.5Z" fill="url(#paint2_linear_14975_875)"></path> <path fill-rule="evenodd" clip-rule="evenodd" d="M1200 252.5L1.66101e-08 252.5L0 251.5L1200 251.5V252.5Z" fill="url(#paint3_linear_14975_875)"></path> <path fill-rule="evenodd" clip-rule="evenodd" d="M1200 315.5L1.66101e-08 315.5L0 314.5L1200 314.5V315.5Z" fill="url(#paint4_linear_14975_875)"></path> <path fill-rule="evenodd" clip-rule="evenodd" d="M1200 401.5L1.66101e-08 401.5L0 400.5L1200 400.5V401.5Z" fill="url(#paint5_linear_14975_875)"></path> <path fill-rule="evenodd" clip-rule="evenodd" d="M400.5 0L400.5 400H399.5L399.5 1.15958e-07L400.5 0Z" fill="url(#paint6_linear_14975_875)"></path> <path fill-rule="evenodd" clip-rule="evenodd" d="M800.5 0L800.5 400H799.5L799.5 1.15958e-07L800.5 0Z" fill="url(#paint7_linear_14975_875)"></path> <defs> <linearGradient id="paint0_linear_14975_875" x1="1200" y1="0" x2="1200" y2="401.5" gradientUnits="userSpaceOnUse"> <stop stop-color="#3C6488" stop-opacity="0"></stop> <stop offset="0.515625" stop-color="#3C6488"></stop> <stop offset="1" stop-color="#3C6488" stop-opacity="0"></stop> </linearGradient> <linearGradient id="paint1_linear_14975_875" x1="1200" y1="0" x2="1200" y2="401.5" gradientUnits="userSpaceOnUse"> <stop stop-color="#3C6488" stop-opacity="0"></stop> <stop offset="0.515625" stop-color="#3C6488"></stop> <stop offset="1" stop-color="#3C6488" stop-opacity="0"></stop> </linearGradient> <linearGradient id="paint2_linear_14975_875" x1="1200" y1="0" x2="1200" y2="401.5" gradientUnits="userSpaceOnUse"> <stop stop-color="#3C6488" stop-opacity="0"></stop> <stop offset="0.515625" stop-color="#3C6488"></stop> <stop offset="1" stop-color="#3C6488" stop-opacity="0"></stop> </linearGradient> <linearGradient id="paint3_linear_14975_875" x1="1200" y1="0" x2="1200" y2="401.5" gradientUnits="userSpaceOnUse"> <stop stop-color="#3C6488" stop-opacity="0"></stop> <stop offset="0.515625" stop-color="#3C6488"></stop> <stop offset="1" stop-color="#3C6488" stop-opacity="0"></stop> </linearGradient> <linearGradient id="paint4_linear_14975_875" x1="1200" y1="0" x2="1200" y2="401.5" gradientUnits="userSpaceOnUse"> <stop stop-color="#3C6488" stop-opacity="0"></stop> <stop offset="0.515625" stop-color="#3C6488"></stop> <stop offset="1" stop-color="#3C6488" stop-opacity="0"></stop> </linearGradient> <linearGradient id="paint5_linear_14975_875" x1="1200" y1="0" x2="1200" y2="401.5" gradientUnits="userSpaceOnUse"> <stop stop-color="#3C6488" stop-opacity="0"></stop> <stop offset="0.515625" stop-color="#3C6488"></stop> <stop offset="1" stop-color="#3C6488" stop-opacity="0"></stop> </linearGradient> <linearGradient id="paint6_linear_14975_875" x1="799.5" y1="400" x2="799.5" y2="2.65889e-06" gradientUnits="userSpaceOnUse"> <stop stop-color="#3C6488"></stop> <stop offset="0.515625" stop-color="#3C6488"></stop> <stop offset="1" stop-color="#3C6488" stop-opacity="0"></stop> </linearGradient> <linearGradient id="paint7_linear_14975_875" x1="799.5" y1="400" x2="799.5" y2="2.65889e-06" gradientUnits="userSpaceOnUse"> <stop stop-color="#3C6488"></stop> <stop offset="0.515625" stop-color="#3C6488"></stop> <stop offset="1" stop-color="#3C6488" stop-opacity="0"></stop> </linearGradient> </defs> </svg> 