<?xml version="1.0" encoding="UTF-8"?> <svg xmlns="http://www.w3.org/2000/svg" width="23" height="23" viewBox="0 0 23 23" fill="none"> <g clip-path="url(#clip0_15065_1317)"> <path d="M12.9375 16.6113H3.83337V18.0169H12.9375C13.1239 18.0169 13.3027 17.9428 13.4345 17.811C13.5663 17.6792 13.6403 17.5005 13.6403 17.3141C13.6403 17.1277 13.5663 16.949 13.4345 16.8172C13.3027 16.6854 13.1239 16.6113 12.9375 16.6113Z" fill="#B1D6F9"></path> <path d="M17.8889 12.7773H3.83337V14.1829H17.8889C18.0753 14.1829 18.2541 14.1089 18.3859 13.9771C18.5177 13.8453 18.5917 13.6665 18.5917 13.4801C18.5917 13.2937 18.5177 13.115 18.3859 12.9832C18.2541 12.8514 18.0753 12.7773 17.8889 12.7773Z" fill="#B1D6F9"></path> <path d="M14.4389 9.64711C14.4389 9.55482 14.4208 9.46344 14.3854 9.37817C14.3501 9.29291 14.2983 9.21543 14.2331 9.15017C14.1678 9.08492 14.0904 9.03315 14.0051 8.99783C13.9198 8.96251 13.8284 8.94434 13.7362 8.94434H3.83337V10.3499H13.7362C13.8284 10.3499 13.9198 10.3317 14.0051 10.2964C14.0904 10.2611 14.1678 10.2093 14.2331 10.1441C14.2983 10.0788 14.3501 10.0013 14.3854 9.91606C14.4208 9.83079 14.4389 9.7394 14.4389 9.64711Z" fill="#B1D6F9"></path> <path d="M18.6875 5.11133H3.83337V6.51688H18.6875C18.8739 6.51688 19.0527 6.44284 19.1845 6.31104C19.3163 6.17925 19.3903 6.00049 19.3903 5.81411C19.3903 5.62772 19.3163 5.44896 19.1845 5.31717C19.0527 5.18537 18.8739 5.11133 18.6875 5.11133Z" fill="#B1D6F9"></path> </g> <defs> <clipPath id="clip0_15065_1317"> <rect width="23" height="23" fill="white"></rect> </clipPath> </defs> </svg> 